<svg xmlns="http://www.w3.org/2000/svg" viewBox="28 33 144 144">
  <defs>
    <radialGradient id="bg" cx="100" cy="120" r="68" gradientTransform="scale(1.129,0.886)" gradientUnits="userSpaceOnUse">
      <stop offset="0%" stop-color="#1a6fd4"/><stop offset="100%" stop-color="#0a1f6b"/>
    </radialGradient>
    <radialGradient id="eL" cx="70" cy="102" r="30" gradientTransform="scale(1.042,0.96)" gradientUnits="userSpaceOnUse">
      <stop offset="0%" stop-color="#ffe94d"/><stop offset="70%" stop-color="#f0a500"/><stop offset="100%" stop-color="#c47800"/>
    </radialGradient>
    <radialGradient id="eR" cx="112" cy="102" r="30" gradientTransform="scale(1.042,0.96)" gradientUnits="userSpaceOnUse">
      <stop offset="0%" stop-color="#ffe94d"/><stop offset="70%" stop-color="#f0a500"/><stop offset="100%" stop-color="#c47800"/>
    </radialGradient>
  </defs>
  <!-- Body -->
  <ellipse cx="100" cy="115" rx="55" ry="50" fill="url(#bg)" stroke="#00eeff" stroke-width="2"/>
  <!-- Left ear -->
  <g transform="rotate(-6.28,90.45,82.01)">
    <polygon points="40,45 75,68 55,80" fill="#0a2a8a" stroke="#00eeff" stroke-width="2"/>
    <polygon points="46,52 72,70 57,76" fill="#1a3fcc" opacity="0.6"/>
  </g>
  <!-- Right ear -->
  <g transform="matrix(-0.994,-0.109,-0.109,0.994,209.37,11.67)">
    <polygon points="40,45 75,68 55,80" fill="#0a2a8a" stroke="#00eeff" stroke-width="2"/>
    <polygon points="46,52 72,70 57,76" fill="#1a3fcc" opacity="0.6"/>
  </g>
  <!-- Eyes -->
  <ellipse cx="78" cy="105" rx="16" ry="14" fill="url(#eL)"/>
  <ellipse cx="78" cy="105" rx="5" ry="12" fill="#0a0a0a"/>
  <ellipse cx="74" cy="101" rx="3" ry="2" fill="#fff" opacity="0.8"/>
  <ellipse cx="122" cy="105" rx="16" ry="14" fill="url(#eR)"/>
  <ellipse cx="122" cy="105" rx="5" ry="12" fill="#0a0a0a"/>
  <ellipse cx="118" cy="101" rx="3" ry="2" fill="#fff" opacity="0.8"/>
  <!-- Nose -->
  <polygon points="93.7,131.9 103.7,131.9 98.7,125.9" fill="#00eeff" opacity="0.9"/>
</svg>
